<svg xmlns="http://www.w3.org/2000/svg" viewBox="0 0 192 192" width="192" height="192">
  <rect width="192" height="192" rx="32" fill="#050508"/>
  <!-- Dungeon grid background -->
  <rect x="16" y="16" width="24" height="24" rx="3" fill="#1a1a2e" stroke="#222233" stroke-width="1"/>
  <rect x="44" y="16" width="24" height="24" rx="3" fill="#1a1a2e" stroke="#222233" stroke-width="1"/>
  <rect x="72" y="16" width="24" height="24" rx="3" fill="#4fc3f7" stroke="#222233" stroke-width="1" opacity="0.8"/>
  <rect x="100" y="16" width="24" height="24" rx="3" fill="#4fc3f7" stroke="#222233" stroke-width="1" opacity="0.8"/>
  <rect x="128" y="16" width="24" height="24" rx="3" fill="#4fc3f7" stroke="#222233" stroke-width="1" opacity="0.8"/>
  <rect x="156" y="16" width="24" height="24" rx="3" fill="#1a1a2e" stroke="#222233" stroke-width="1"/>
  <!-- Floor tiles row -->
  <rect x="16" y="100" width="24" height="24" rx="3" fill="#333366" stroke="#222233" stroke-width="1"/>
  <rect x="44" y="100" width="24" height="24" rx="3" fill="#333366" stroke="#222233" stroke-width="1"/>
  <rect x="72" y="100" width="24" height="24" rx="3" fill="#333366" stroke="#222233" stroke-width="1"/>
  <rect x="100" y="100" width="24" height="24" rx="3" fill="#333366" stroke="#222233" stroke-width="1"/>
  <rect x="128" y="100" width="24" height="24" rx="3" fill="#333366" stroke="#222233" stroke-width="1"/>
  <rect x="156" y="100" width="24" height="24" rx="3" fill="#333366" stroke="#222233" stroke-width="1"/>
  <!-- Floor tiles row 2 -->
  <rect x="16" y="128" width="24" height="24" rx="3" fill="#333366" stroke="#222233" stroke-width="1"/>
  <rect x="44" y="128" width="24" height="24" rx="3" fill="#333366" stroke="#222233" stroke-width="1"/>
  <rect x="72" y="128" width="24" height="24" rx="3" fill="#333366" stroke="#222233" stroke-width="1"/>
  <rect x="100" y="128" width="24" height="24" rx="3" fill="#333366" stroke="#222233" stroke-width="1"/>
  <rect x="128" y="128" width="24" height="24" rx="3" fill="#8e24aa" stroke="#222233" stroke-width="1" opacity="0.9"/>
  <rect x="156" y="128" width="24" height="24" rx="3" fill="#333366" stroke="#222233" stroke-width="1"/>
  <!-- Wizard emoji centered -->
  <text x="96" y="82" font-size="44" text-anchor="middle" dominant-baseline="middle">🧙‍♂️</text>
  <!-- Title -->
  <text x="96" y="168" font-family="sans-serif" font-size="14" font-weight="bold" fill="#ffd54f" text-anchor="middle">RIFT CRAWLER</text>
</svg>
